<?xml version="1.0" encoding="utf-8"?>
<!-- Generator: Adobe Illustrator 22.1.0, SVG Export Plug-In . SVG Version: 6.00 Build 0)  -->
<svg version="1.1" id="Layer_1" xmlns="http://www.w3.org/2000/svg" xmlns:xlink="http://www.w3.org/1999/xlink" x="0px" y="0px"
	 viewBox="0 0 191.8 47" style="enable-background:new 0 0 191.8 47;" xml:space="preserve">
<style type="text/css">
	.st0{fill:#231F20;}
	.st1{fill:#EC1C24;}
	.st2{fill:#FFFFFF;}
</style>
<rect width="191.8" height="47"/>
<image style="overflow:visible;" width="564" height="768" xlink:href="../../../Downloads/5a291f9047d7f3.5423325815126444962943.png"  transform="matrix(1 0 0 1 215.5039 -152.1022)">
</image>
<rect x="28" y="11.4" class="st0" width="3.5" height="3.5"/>
<rect x="24.6" y="7.9" class="st0" width="3.5" height="3.5"/>
<rect x="31.5" y="7.9" class="st0" width="3.5" height="3.5"/>
<rect x="35" y="4.5" class="st0" width="3.5" height="3.5"/>
<rect x="38.4" y="4.5" class="st0" width="3.5" height="3.5"/>
<rect x="41.9" y="4.5" class="st0" width="3.5" height="3.5"/>
<rect x="14.2" y="4.5" class="st0" width="3.5" height="3.5"/>
<rect x="17.6" y="4.5" class="st0" width="3.5" height="3.5"/>
<rect x="21.1" y="4.5" class="st0" width="3.5" height="3.5"/>
<rect x="45.3" y="7.9" class="st0" width="3.5" height="3.5"/>
<rect x="10.7" y="7.9" class="st0" width="3.5" height="3.5"/>
<rect x="7.3" y="18.3" transform="matrix(6.123234e-17 -1 1 6.123234e-17 -11.0403 29.0164)" class="st0" width="3.5" height="3.5"/>
<rect x="7.3" y="14.8" transform="matrix(6.123234e-17 -1 1 6.123234e-17 -7.5787 25.5548)" class="st0" width="3.5" height="3.5"/>
<rect x="7.3" y="11.4" transform="matrix(6.123234e-17 -1 1 6.123234e-17 -4.1171 22.0932)" class="st0" width="3.5" height="3.5"/>
<rect x="48.8" y="11.4" transform="matrix(-1.836970e-16 1 -1 -1.836970e-16 63.6331 -37.4228)" class="st0" width="3.5" height="3.5"/>
<rect x="48.8" y="14.8" transform="matrix(-1.836970e-16 1 -1 -1.836970e-16 67.0947 -33.9612)" class="st0" width="3.5" height="3.5"/>
<rect x="48.8" y="18.3" transform="matrix(-1.836970e-16 1 -1 -1.836970e-16 70.5563 -30.4996)" class="st0" width="3.5" height="3.5"/>
<rect x="45.3" y="21.8" class="st0" width="3.5" height="3.5"/>
<rect x="41.9" y="25.2" class="st0" width="3.5" height="3.5"/>
<rect x="38.4" y="28.7" class="st0" width="3.5" height="3.5"/>
<rect x="35" y="32.1" class="st0" width="3.5" height="3.5"/>
<rect x="31.5" y="35.6" class="st0" width="3.5" height="3.5"/>
<rect x="28" y="39.1" class="st0" width="3.5" height="3.5"/>
<rect x="10.7" y="21.8" transform="matrix(-1 -4.466528e-11 4.466528e-11 -1 24.9005 46.9799)" class="st0" width="3.5" height="3.5"/>
<rect x="14.2" y="25.2" transform="matrix(-1 -4.466528e-11 4.466528e-11 -1 31.8238 53.9031)" class="st0" width="3.5" height="3.5"/>
<rect x="17.6" y="28.7" transform="matrix(-1 -4.519108e-11 4.519108e-11 -1 38.747 60.8264)" class="st0" width="3.5" height="3.5"/>
<rect x="21.1" y="32.1" transform="matrix(-1 -4.466528e-11 4.466528e-11 -1 45.6702 67.7496)" class="st0" width="3.5" height="3.5"/>
<rect x="24.6" y="35.6" transform="matrix(-1 -4.519108e-11 4.519108e-11 -1 52.5934 74.6728)" class="st0" width="3.5" height="3.5"/>
<polygon class="st1" points="48.8,11.4 45.3,11.4 45.3,7.9 35,7.9 35,11.4 31.5,11.4 31.5,14.8 28,14.8 28,11.4 24.6,11.4 24.6,7.9 
	14.2,7.9 14.2,11.4 10.7,11.4 10.7,21.8 14.2,21.8 14.2,25.2 17.6,25.2 17.6,28.7 21.1,28.7 21.1,32.1 24.6,32.1 24.6,35.6 28,35.6 
	28,39.1 31.5,39.1 31.5,35.6 35,35.6 35,32.1 38.4,32.1 38.4,28.7 41.9,28.7 41.9,25.2 45.3,25.2 45.3,21.8 48.8,21.8 "/>
<g>
	<g>
		<rect x="160.3" y="11.4" class="st0" width="3.5" height="3.5"/>
		<rect x="156.8" y="7.9" class="st0" width="3.5" height="3.5"/>
		<rect x="163.7" y="7.9" class="st0" width="3.5" height="3.5"/>
		<rect x="167.2" y="4.5" class="st0" width="3.5" height="3.5"/>
		<rect x="170.7" y="4.5" class="st0" width="3.5" height="3.5"/>
		<rect x="174.1" y="4.5" class="st0" width="3.5" height="3.5"/>
		<rect x="146.4" y="4.5" class="st0" width="3.5" height="3.5"/>
		<rect x="149.9" y="4.5" class="st0" width="3.5" height="3.5"/>
		<rect x="153.3" y="4.5" class="st0" width="3.5" height="3.5"/>
		<rect x="177.6" y="7.9" class="st0" width="3.5" height="3.5"/>
		<rect x="143" y="7.9" class="st0" width="3.5" height="3.5"/>
		
			<rect x="139.5" y="18.3" transform="matrix(6.123234e-17 -1 1 6.123234e-17 121.1989 161.2556)" class="st0" width="3.5" height="3.5"/>
		
			<rect x="139.5" y="14.8" transform="matrix(6.123234e-17 -1 1 6.123234e-17 124.6605 157.7939)" class="st0" width="3.5" height="3.5"/>
		
			<rect x="139.5" y="11.4" transform="matrix(6.123234e-17 -1 1 6.123234e-17 128.1221 154.3323)" class="st0" width="3.5" height="3.5"/>
		
			<rect x="181" y="11.4" transform="matrix(-1.836970e-16 1 -1 -1.836970e-16 195.8722 -169.662)" class="st0" width="3.5" height="3.5"/>
		
			<rect x="181" y="14.8" transform="matrix(-1.836970e-16 1 -1 -1.836970e-16 199.3338 -166.2004)" class="st0" width="3.5" height="3.5"/>
		
			<rect x="181" y="18.3" transform="matrix(-1.836970e-16 1 -1 -1.836970e-16 202.7955 -162.7388)" class="st0" width="3.5" height="3.5"/>
		<rect x="177.6" y="21.8" class="st0" width="3.5" height="3.5"/>
		<rect x="174.1" y="25.2" class="st0" width="3.5" height="3.5"/>
		<rect x="170.7" y="28.7" class="st0" width="3.5" height="3.5"/>
		<rect x="167.2" y="32.1" class="st0" width="3.5" height="3.5"/>
		<rect x="163.7" y="35.6" class="st0" width="3.5" height="3.5"/>
		<rect x="160.3" y="39.1" class="st0" width="3.5" height="3.5"/>
		
			<rect x="143" y="21.8" transform="matrix(-1 -4.466528e-11 4.466528e-11 -1 289.3788 46.9799)" class="st0" width="3.5" height="3.5"/>
		
			<rect x="146.4" y="25.2" transform="matrix(-1 -4.466528e-11 4.466528e-11 -1 296.302 53.9031)" class="st0" width="3.5" height="3.5"/>
		
			<rect x="149.9" y="28.7" transform="matrix(-1 -4.519108e-11 4.519108e-11 -1 303.2252 60.8264)" class="st0" width="3.5" height="3.5"/>
		
			<rect x="153.3" y="32.1" transform="matrix(-1 -4.466528e-11 4.466528e-11 -1 310.1484 67.7496)" class="st0" width="3.5" height="3.5"/>
		
			<rect x="156.8" y="35.6" transform="matrix(-1 -4.519108e-11 4.519108e-11 -1 317.0717 74.6728)" class="st0" width="3.5" height="3.5"/>
	</g>
	<polygon class="st1" points="181,11.4 177.6,11.4 177.6,7.9 167.2,7.9 167.2,11.4 163.7,11.4 163.7,14.8 160.3,14.8 160.3,11.4 
		156.8,11.4 156.8,7.9 146.4,7.9 146.4,11.4 143,11.4 143,21.8 146.4,21.8 146.4,25.2 149.9,25.2 149.9,28.7 153.3,28.7 153.3,32.1 
		156.8,32.1 156.8,35.6 160.3,35.6 160.3,39.1 163.7,39.1 163.7,35.6 167.2,35.6 167.2,32.1 170.7,32.1 170.7,28.7 174.1,28.7 
		174.1,25.2 177.6,25.2 177.6,21.8 181,21.8 	"/>
</g>
<g>
	<g>
		<rect x="94.1" y="11.4" class="st0" width="3.5" height="3.5"/>
		<rect x="90.7" y="7.9" class="st0" width="3.5" height="3.5"/>
		<rect x="97.6" y="7.9" class="st0" width="3.5" height="3.5"/>
		<rect x="101.1" y="4.5" class="st0" width="3.5" height="3.5"/>
		<rect x="104.5" y="4.5" class="st0" width="3.5" height="3.5"/>
		<rect x="108" y="4.5" class="st0" width="3.5" height="3.5"/>
		<rect x="80.3" y="4.5" class="st0" width="3.5" height="3.5"/>
		<rect x="83.8" y="4.5" class="st0" width="3.5" height="3.5"/>
		<rect x="87.2" y="4.5" class="st0" width="3.5" height="3.5"/>
		<rect x="111.5" y="7.9" class="st0" width="3.5" height="3.5"/>
		<rect x="76.8" y="7.9" class="st0" width="3.5" height="3.5"/>
		
			<rect x="73.4" y="18.3" transform="matrix(6.123234e-17 -1 1 6.123234e-17 55.0793 95.136)" class="st0" width="3.5" height="3.5"/>
		
			<rect x="73.4" y="14.8" transform="matrix(6.123234e-17 -1 1 6.123234e-17 58.5409 91.6744)" class="st0" width="3.5" height="3.5"/>
		
			<rect x="73.4" y="11.4" transform="matrix(6.123234e-17 -1 1 6.123234e-17 62.0025 88.2128)" class="st0" width="3.5" height="3.5"/>
		
			<rect x="114.9" y="11.4" transform="matrix(-1.836970e-16 1 -1 -1.836970e-16 129.7527 -103.5424)" class="st0" width="3.5" height="3.5"/>
		
			<rect x="114.9" y="14.8" transform="matrix(-1.836970e-16 1 -1 -1.836970e-16 133.2143 -100.0808)" class="st0" width="3.5" height="3.5"/>
		
			<rect x="114.9" y="18.3" transform="matrix(-1.836970e-16 1 -1 -1.836970e-16 136.6759 -96.6192)" class="st0" width="3.5" height="3.5"/>
		<rect x="111.5" y="21.8" class="st0" width="3.5" height="3.5"/>
		<rect x="108" y="25.2" class="st0" width="3.5" height="3.5"/>
		<rect x="104.5" y="28.7" class="st0" width="3.5" height="3.5"/>
		<rect x="101.1" y="32.1" class="st0" width="3.5" height="3.5"/>
		<rect x="97.6" y="35.6" class="st0" width="3.5" height="3.5"/>
		<rect x="94.1" y="39.1" class="st0" width="3.5" height="3.5"/>
		
			<rect x="76.8" y="21.8" transform="matrix(-1 -4.519108e-11 4.519108e-11 -1 157.1397 46.9799)" class="st0" width="3.5" height="3.5"/>
		
			<rect x="80.3" y="25.2" transform="matrix(-1 -4.413992e-11 4.413992e-11 -1 164.0629 53.9031)" class="st0" width="3.5" height="3.5"/>
		
			<rect x="83.8" y="28.7" transform="matrix(-1 -4.519108e-11 4.519108e-11 -1 170.9861 60.8264)" class="st0" width="3.5" height="3.5"/>
		
			<rect x="87.2" y="32.1" transform="matrix(-1 -4.519108e-11 4.519108e-11 -1 177.9093 67.7496)" class="st0" width="3.5" height="3.5"/>
		
			<rect x="90.7" y="35.6" transform="matrix(-1 -4.519108e-11 4.519108e-11 -1 184.8326 74.6728)" class="st0" width="3.5" height="3.5"/>
	</g>
	<polygon class="st1" points="114.9,11.4 111.5,11.4 111.5,7.9 101.1,7.9 101.1,11.4 97.6,11.4 97.6,14.8 94.1,14.8 94.1,11.4 
		90.7,11.4 90.7,7.9 80.3,7.9 80.3,11.4 76.8,11.4 76.8,21.8 80.3,21.8 80.3,25.2 83.8,25.2 83.8,28.7 87.2,28.7 87.2,32.1 
		90.7,32.1 90.7,35.6 94.1,35.6 94.1,39.1 97.6,39.1 97.6,35.6 101.1,35.6 101.1,32.1 104.5,32.1 104.5,28.7 108,28.7 108,25.2 
		111.5,25.2 111.5,21.8 114.9,21.8 	"/>
</g>
<rect x="14.2" y="11.4" class="st2" width="3.5" height="3.5"/>
<rect x="17.6" y="11.4" class="st2" width="3.5" height="3.5"/>
<rect x="14.2" y="14.8" class="st2" width="3.5" height="3.5"/>
<rect x="80.3" y="11.4" class="st2" width="3.5" height="3.5"/>
<rect x="83.8" y="11.4" class="st2" width="3.5" height="3.5"/>
<rect x="80.3" y="14.8" class="st2" width="3.5" height="3.5"/>
<rect x="146.4" y="11.4" class="st2" width="3.5" height="3.5"/>
<rect x="149.9" y="11.4" class="st2" width="3.5" height="3.5"/>
<rect x="146.4" y="14.8" class="st2" width="3.5" height="3.5"/>
</svg>
